<?xml version="1.0" standalone="no"?>
<!DOCTYPE svg PUBLIC "-//W3C//DTD SVG 20010904//EN"
 "http://www.w3.org/TR/2001/REC-SVG-20010904/DTD/svg10.dtd">
<svg version="1.0" xmlns="http://www.w3.org/2000/svg"
 width="640.000000pt" height="640.000000pt" viewBox="0 0 640.000000 640.000000"
 preserveAspectRatio="xMidYMid meet">
<metadata>
Created by potrace 1.11, written by Peter Selinger 2001-2013
</metadata>
<g transform="translate(0.000000,640.000000) scale(0.100000,-0.100000)"
fill="#000000" stroke="none">
<path d="M1148 4715 c-2 -1 -38 -5 -80 -8 -98 -8 -252 -39 -354 -72 -374 -122
-625 -388 -689 -731 -15 -76 -17 -162 -17 -594 0 -326 4 -530 12 -575 47 -292
203 -506 469 -643 107 -56 274 -113 370 -127 14 -2 37 -6 51 -9 130 -29 559
-29 660 -1 8 2 26 6 40 9 225 44 469 166 603 302 104 105 180 251 208 395 15
81 19 768 4 770 -5 1 -57 2 -115 3 -58 1 -111 5 -119 10 -8 6 -12 5 -8 0 8
-14 -386 -13 -395 0 -5 7 -8 7 -8 1 0 -13 -209 -13 -229 -1 -9 6 -12 5 -8 0 3
-6 -73 -10 -199 -9 l-204 0 0 -60 c-2 -215 0 -438 4 -443 3 -2 136 -4 295 -4
l291 1 -4 -67 c-4 -73 -20 -140 -43 -186 -49 -94 -205 -185 -325 -190 -16 0
-28 -3 -28 -6 0 -3 -21 -4 -47 -4 -281 7 -446 105 -513 305 -21 62 -22 78 -21
544 0 264 2 490 5 503 4 12 8 30 10 40 16 72 90 169 166 217 36 23 129 60 177
71 15 3 73 8 128 10 261 10 451 -102 494 -292 7 -28 11 -55 10 -60 -1 -5 -1
-25 0 -44 l1 -35 342 0 c189 0 346 4 349 8 10 14 -1 209 -16 273 -68 297 -294
514 -649 620 -71 22 -135 38 -186 49 -86 17 -419 41 -432 30z"/>
<path d="M2675 3740 c-2 -3 10 -6 26 -6 16 -1 29 1 29 5 0 8 -50 9 -55 1z"/>
<path d="M2760 3740 c-13 -8 -12 -10 3 -10 9 0 17 5 17 10 0 12 -1 12 -20 0z"/>
<path d="M2805 3740 c-19 -8 -19 -9 3 -9 12 -1 22 4 22 9 0 6 -1 10 -2 9 -2 0
-12 -4 -23 -9z"/>
<path d="M2850 3740 c-13 -8 -12 -10 3 -10 9 0 17 5 17 10 0 12 -1 12 -20 0z"/>
<path d="M2895 3740 c-17 -8 -16 -8 8 -7 15 1 27 5 27 9 0 10 -9 9 -35 -2z"/>
<path d="M2955 3740 c-2 -3 10 -6 26 -6 16 -1 29 1 29 5 0 8 -50 9 -55 1z"/>
<path d="M3045 3740 c-19 -8 -19 -9 3 -9 12 -1 22 4 22 9 0 6 -1 10 -2 9 -2 0
-12 -4 -23 -9z"/>
<path d="M3090 3740 c-13 -8 -12 -10 3 -10 9 0 17 5 17 10 0 12 -1 12 -20 0z"/>
<path d="M3155 3740 c-5 -7 51 -7 58 0 3 3 -8 5 -24 5 -17 1 -32 -2 -34 -5z"/>
<path d="M3230 3740 c0 -6 7 -10 15 -10 8 0 15 2 15 4 0 2 -7 6 -15 10 -8 3
-15 1 -15 -4z"/>
<path d="M3280 3740 c-12 -7 -10 -9 7 -7 12 0 19 5 17 9 -6 10 -6 10 -24 -2z"/>
<path d="M3330 3740 c-13 -8 -12 -10 3 -10 9 0 17 5 17 10 0 12 -1 12 -20 0z"/>
<path d="M3375 3740 c-17 -8 -16 -8 8 -7 15 1 27 5 27 9 0 10 -9 9 -35 -2z"/>
<path d="M3435 3740 c-2 -3 10 -6 26 -6 16 -1 29 1 29 5 0 8 -50 9 -55 1z"/>
<path d="M3520 3740 c-12 -7 -10 -9 7 -7 12 0 19 5 17 9 -6 10 -6 10 -24 -2z"/>
<path d="M3570 3740 c-13 -8 -12 -10 3 -10 9 0 17 5 17 10 0 12 -1 12 -20 0z"/>
<path d="M3635 3740 c-2 -3 12 -7 31 -8 19 -2 34 -1 34 2 0 7 -61 13 -65 6z"/>
<path d="M3710 3740 c0 -6 7 -10 15 -10 8 0 15 2 15 4 0 2 -7 6 -15 10 -8 3
-15 1 -15 -4z"/>
<path d="M3760 3740 c-12 -7 -10 -9 7 -7 12 0 19 5 17 9 -6 10 -6 10 -24 -2z"/>
<path d="M3810 3740 c-13 -8 -12 -10 3 -10 9 0 17 5 17 10 0 12 -1 12 -20 0z"/>
<path d="M3855 3740 c-17 -8 -16 -8 8 -7 15 1 27 5 27 9 0 10 -9 9 -35 -2z"/>
<path d="M3915 3740 c-2 -3 10 -6 26 -6 16 -1 29 1 29 5 0 8 -50 9 -55 1z"/>
<path d="M4000 3740 c-12 -7 -10 -9 7 -7 12 0 19 5 17 9 -6 10 -6 10 -24 -2z"/>
<path d="M4050 3740 c-13 -8 -12 -10 3 -10 9 0 17 5 17 10 0 12 -1 12 -20 0z"/>
<path d="M4115 3740 c-2 -3 12 -7 31 -8 19 -2 34 -1 34 2 0 7 -61 13 -65 6z"/>
<path d="M4190 3740 c0 -6 7 -10 15 -10 8 0 15 2 15 4 0 2 -7 6 -15 10 -8 3
-15 1 -15 -4z"/>
<path d="M4240 3740 c-12 -7 -10 -9 7 -7 12 0 19 5 17 9 -6 10 -6 10 -24 -2z"/>
<path d="M4290 3740 c-13 -8 -12 -10 3 -10 9 0 17 5 17 10 0 12 -1 12 -20 0z"/>
<path d="M4335 3740 c-16 -6 -13 -8 13 -7 17 0 32 1 32 2 0 8 -28 11 -45 5z"/>
<path d="M4395 3740 c-2 -3 12 -7 31 -8 19 -2 34 -1 34 2 0 7 -61 13 -65 6z"/>
<path d="M4474 3739 c-2 -3 15 -6 36 -6 22 0 38 2 35 5 -7 7 -66 8 -71 1z"/>
<path d="M4595 3740 c-2 -3 12 -7 31 -8 19 -2 34 -1 34 2 0 7 -61 13 -65 6z"/>
<path d="M4680 3740 c-13 -8 -12 -10 3 -10 9 0 17 5 17 10 0 12 -1 12 -20 0z"/>
<path d="M4714 3739 c-2 -3 15 -6 36 -6 22 0 38 2 35 5 -7 7 -66 8 -71 1z"/>
<path d="M4815 3740 c-16 -6 -13 -8 13 -7 17 0 32 1 32 2 0 8 -28 11 -45 5z"/>
<path d="M4875 3740 c-2 -3 12 -7 31 -8 19 -2 34 -1 34 2 0 7 -61 13 -65 6z"/>
<path d="M4954 3739 c-2 -3 15 -6 36 -6 22 0 38 2 35 5 -7 7 -66 8 -71 1z"/>
<path d="M5075 3740 c-2 -3 12 -7 31 -8 19 -2 34 -1 34 2 0 7 -61 13 -65 6z"/>
<path d="M5160 3740 c-13 -8 -12 -10 3 -10 9 0 17 5 17 10 0 12 -1 12 -20 0z"/>
<path d="M5194 3739 c-2 -3 15 -6 36 -6 22 0 38 2 35 5 -7 7 -66 8 -71 1z"/>
<path d="M5295 3740 c-16 -6 -13 -8 13 -7 17 0 32 1 32 2 0 8 -28 11 -45 5z"/>
<path d="M5355 3740 c-2 -3 12 -7 31 -8 19 -2 34 -1 34 2 0 7 -61 13 -65 6z"/>
<path d="M5570 3739 c0 -5 11 -9 25 -9 14 0 25 2 25 4 0 2 -11 6 -25 8 -14 3
-25 1 -25 -3z"/>
<path d="M5635 3740 c-3 -5 1 -10 10 -10 9 0 13 5 10 10 -3 6 -8 10 -10 10 -2
0 -7 -4 -10 -10z"/>
<path d="M5700 3740 l-35 -8 42 1 c23 0 40 4 37 9 -3 4 -6 7 -7 7 -1 -1 -18
-5 -37 -9z"/>
<path d="M5770 3740 c-13 -8 -12 -10 3 -10 9 0 17 5 17 10 0 12 -1 12 -20 0z"/>
<path d="M5850 3739 c0 -5 11 -9 25 -9 14 0 25 2 25 4 0 2 -11 6 -25 8 -14 3
-25 1 -25 -3z"/>
<path d="M6050 3739 c0 -5 11 -9 25 -9 14 0 25 2 25 4 0 2 -11 6 -25 8 -14 3
-25 1 -25 -3z"/>
<path d="M6115 3740 c-3 -5 1 -10 10 -10 9 0 13 5 10 10 -3 6 -8 10 -10 10 -2
0 -7 -4 -10 -10z"/>
<path d="M6180 3740 l-35 -8 42 1 c23 0 40 4 37 9 -3 4 -6 7 -7 7 -1 -1 -18
-5 -37 -9z"/>
<path d="M6250 3740 c-13 -8 -12 -10 3 -10 9 0 17 5 17 10 0 12 -1 12 -20 0z"/>
<path d="M6330 3739 c0 -5 11 -9 25 -9 14 0 25 2 25 4 0 2 -11 6 -25 8 -14 3
-25 1 -25 -3z"/>
<path d="M5443 3733 c9 -2 25 -2 35 0 9 3 1 5 -18 5 -19 0 -27 -2 -17 -5z"/>
<path d="M5923 3733 c9 -2 25 -2 35 0 9 3 1 5 -18 5 -19 0 -27 -2 -17 -5z"/>
<path d="M3217 3444 c-1 -1 -16 -5 -32 -8 -17 -2 -31 -5 -32 -6 -2 -2 -6 -3
-10 -4 -36 -9 -88 -41 -127 -78 l-46 -45 0 64 c0 43 -4 63 -12 64 -36 3 -274
4 -283 2 -7 -2 -9 -156 -8 -441 1 -240 2 -439 2 -442 1 -4 114 -4 281 -1 l25
1 1 238 c1 266 3 293 35 336 22 30 50 53 58 47 2 -1 7 2 10 7 3 6 26 13 51 17
24 4 48 9 52 11 5 3 8 -1 8 -8 0 -8 3 -9 8 -3 9 13 42 16 42 4 0 -6 8 -6 19 0
10 6 21 8 24 4 4 -3 22 -7 40 -8 l33 -1 0 123 c0 79 -3 123 -10 124 -28 3
-126 5 -129 3z"/>
<path d="M3777 3444 c-2 -3 -13 -6 -23 -8 -126 -26 -230 -100 -282 -202 -29
-59 -35 -96 -37 -244 -2 -196 17 -261 98 -341 108 -108 358 -153 537 -97 65
20 130 50 130 61 0 6 3 8 6 4 13 -13 86 70 116 131 31 64 32 68 34 219 2 210
-16 275 -101 358 -40 40 -138 95 -168 95 -7 0 -17 3 -21 7 -3 4 -16 9 -29 11
-31 6 -255 11 -260 6z m212 -236 c47 -29 55 -64 56 -224 0 -166 -7 -189 -64
-219 -41 -21 -110 -25 -149 -9 -37 15 -53 29 -70 61 -16 29 -18 313 -3 341 17
32 72 70 106 74 36 4 99 -8 124 -24z"/>
<path d="M5770 3430 c-144 -45 -217 -102 -269 -210 -25 -52 -26 -65 -28 -225
-3 -174 1 -200 40 -273 95 -178 432 -250 720 -155 44 15 81 31 83 38 3 6 -16
55 -41 109 -33 70 -49 95 -58 89 -10 -8 -68 -28 -117 -40 -8 -2 -45 -7 -81
-10 -114 -10 -220 42 -235 113 l-6 30 279 -1 c153 0 288 1 299 3 21 4 21 8 19
150 -3 169 -15 208 -87 280 -40 41 -114 83 -173 98 -5 1 -23 6 -40 10 -62 15
-247 12 -305 -6z m240 -213 c44 -21 60 -46 66 -103 l4 -44 -150 0 -150 0 4 33
c2 17 4 37 5 44 2 21 53 73 72 73 10 0 19 4 19 8 0 14 94 6 130 -11z"/>
<path d="M4431 3432 c-5 -2 18 -71 51 -155 83 -214 89 -230 90 -244 1 -7 5
-13 10 -13 4 0 8 -6 8 -12 0 -11 29 -90 70 -193 4 -11 30 -76 56 -145 l49
-125 155 0 154 0 47 125 c26 69 52 136 57 150 6 14 56 149 111 300 56 151 106
283 111 292 5 9 6 19 2 20 -6 3 -246 2 -278 -1 -6 -1 -50 -122 -99 -271 -49
-148 -92 -266 -96 -262 -4 4 -43 119 -88 256 -45 136 -85 256 -90 264 -8 14
-32 16 -160 17 -83 0 -155 -1 -160 -3z"/>
<path d="M3968 2303 c-3 -7 -2 -313 1 -350 1 -7 6 -13 11 -13 6 0 10 68 10
185 0 109 -4 185 -9 185 -6 0 -11 -3 -13 -7z"/>
<path d="M2660 2285 c0 -5 86 -240 99 -270 5 -11 13 -32 20 -47 6 -16 14 -28
18 -28 8 0 133 325 133 343 0 20 -23 -2 -35 -33 -7 -19 -32 -88 -55 -153 l-43
-119 -55 150 c-30 83 -60 153 -68 156 -8 3 -14 3 -14 1z"/>
<path d="M2976 2274 c-3 -9 -3 -20 0 -25 9 -15 34 10 27 27 -7 19 -19 18 -27
-2z"/>
<path d="M4256 2192 c-21 -53 -42 -106 -46 -117 -41 -96 -52 -126 -48 -131 11
-10 36 26 49 70 7 26 16 47 19 47 23 5 118 4 130 -2 9 -4 24 -30 33 -57 10
-28 25 -53 33 -56 8 -3 14 -2 14 2 0 14 -133 342 -139 342 -3 0 -23 -44 -45
-98z m93 -102 c-7 -5 -41 -5 -96 -1 -9 1 -7 16 8 54 12 28 25 63 31 77 9 23
12 19 37 -50 15 -41 24 -77 20 -80z"/>
<path d="M4930 2271 c0 -12 6 -21 16 -21 9 0 14 7 12 17 -5 25 -28 28 -28 4z"/>
<path d="M3275 2231 c-3 -15 -16 -33 -28 -39 l-22 -11 23 0 c21 -1 22 -4 22
-93 0 -108 13 -142 54 -146 37 -5 66 6 47 17 -7 5 -22 6 -33 3 -32 -8 -44 22
-42 111 1 45 2 88 3 95 0 7 15 12 36 12 19 0 35 5 35 11 0 6 -13 9 -30 7 -32
-3 -52 15 -43 38 2 6 0 15 -6 18 -5 3 -12 -7 -16 -23z"/>
<path d="M5277 2253 c-4 -3 -7 -15 -7 -26 0 -10 -9 -21 -20 -24 -23 -6 -27
-23 -5 -23 17 0 16 5 18 -118 2 -80 5 -96 21 -108 23 -16 86 -19 86 -4 0 6
-13 10 -29 10 -42 0 -52 19 -52 106 -1 110 -1 115 14 113 30 -4 57 2 57 12 0
6 -15 9 -37 7 -37 -3 -38 -2 -35 30 4 32 1 38 -11 25z"/>
<path d="M3151 2194 c-17 -7 -31 -19 -32 -26 0 -7 -4 -3 -9 10 -19 45 -25 19
-25 -106 0 -97 3 -129 12 -129 10 0 13 25 13 92 0 111 18 145 76 145 19 0 34
4 34 9 0 16 -37 19 -69 5z"/>
<path d="M3771 2199 c-24 -5 -46 -11 -49 -14 -12 -12 8 -15 45 -7 60 14 93 -8
93 -60 0 -27 -2 -28 -54 -28 -46 0 -59 -4 -85 -29 -25 -24 -31 -35 -27 -58 11
-60 88 -83 140 -42 14 11 27 18 27 15 1 -3 2 -11 3 -18 0 -6 6 -13 11 -15 12
-4 13 180 1 215 -11 34 -53 50 -105 41z m89 -158 c0 -40 -28 -71 -71 -77 -42
-7 -69 13 -69 51 0 31 41 54 98 55 40 0 42 -2 42 -29z"/>
<path d="M4538 2200 c-51 -9 -70 -27 -66 -64 3 -27 11 -35 70 -65 72 -36 91
-63 65 -89 -18 -17 -78 -23 -119 -11 -21 6 -28 4 -28 -6 0 -26 121 -34 154
-10 23 17 35 57 24 81 -6 12 -37 33 -73 49 -35 15 -66 34 -69 41 -15 39 26 61
94 50 21 -3 41 -2 44 2 9 14 -56 28 -96 22z"/>
<path d="M4731 2194 c-32 -14 -43 -36 -35 -69 4 -17 25 -34 72 -57 56 -27 68
-38 70 -60 3 -22 -2 -30 -23 -38 -27 -10 -86 -8 -118 5 -13 6 -16 3 -11 -9 8
-21 45 -30 102 -23 46 5 83 33 78 60 -8 44 -20 57 -80 82 -69 29 -86 54 -58
81 12 13 29 15 74 11 42 -4 58 -2 55 6 -5 18 -93 25 -126 11z"/>
<path d="M5083 2201 c-34 -9 -62 -37 -58 -58 2 -10 4 -23 4 -30 1 -6 30 -25
66 -42 72 -34 92 -58 71 -87 -15 -20 -84 -27 -123 -13 -13 5 -25 4 -28 -1 -10
-17 47 -32 99 -27 56 5 88 33 82 70 -3 12 -5 25 -5 30 -1 4 -31 22 -68 40 -70
33 -86 55 -62 84 11 12 26 14 71 10 32 -3 58 -1 58 3 0 16 -73 30 -107 21z"/>
<path d="M5765 2202 c-10 -2 -29 -11 -41 -18 -19 -13 -22 -13 -27 1 -16 39
-22 5 -22 -112 1 -151 18 -169 25 -27 4 85 8 98 29 115 44 35 119 17 122 -29
0 -9 1 -54 2 -99 0 -54 5 -84 13 -87 8 -3 11 22 9 97 -3 133 -2 124 -29 142
-27 18 -53 23 -81 17z"/>
<path d="M6035 2202 c-61 -13 -97 -72 -89 -148 8 -84 56 -122 139 -112 49 5
40 25 -10 22 -35 -2 -51 3 -71 19 -34 29 -45 83 -28 133 18 53 39 66 97 61 52
-5 74 9 30 19 -15 3 -32 7 -38 8 -5 1 -19 0 -30 -2z"/>
<path d="M6260 2202 c-56 -8 -89 -64 -87 -145 2 -46 7 -61 28 -82 28 -29 80
-41 133 -31 57 11 42 23 -28 22 -67 0 -82 7 -103 55 -15 35 -3 51 38 49 19 -1
58 -2 87 -1 l54 1 -7 43 c-11 68 -50 98 -115 89z m26 -11 c-3 -5 6 -12 19 -15
15 -4 30 -18 35 -32 20 -51 16 -54 -65 -54 -66 0 -75 2 -75 18 0 24 18 48 55
71 35 23 38 24 31 12z"/>
<path d="M2979 2200 c-1 -3 -2 -58 -2 -123 -2 -84 2 -122 11 -129 9 -8 12 12
13 93 2 124 0 141 -12 154 -5 5 -9 7 -10 5z"/>
<path d="M3429 2153 c-5 -187 9 -217 94 -209 27 2 54 9 60 15 16 16 27 14 27
-5 0 -8 5 -12 10 -9 15 10 13 258 -2 253 -8 -3 -13 -32 -13 -89 -1 -46 -4 -94
-8 -105 -17 -50 -119 -56 -138 -7 -5 13 -9 65 -9 114 0 53 -4 89 -10 89 -5 0
-11 -21 -11 -47z"/>
<path d="M4932 2075 c4 -160 23 -170 24 -12 0 117 -2 137 -17 137 -6 0 -8 -53
-7 -125z"/>
<path d="M5448 2193 c-10 -2 -18 -9 -18 -14 0 -5 22 -7 53 -3 62 7 87 -9 87
-57 0 -28 -2 -29 -46 -29 -49 0 -113 -25 -115 -44 0 -6 -2 -21 -5 -34 -11 -58
85 -94 139 -52 l25 20 7 -23 7 -22 7 25 c5 19 7 149 2 193 -1 4 -10 16 -21 27
-19 19 -75 25 -122 13z m122 -147 c0 -49 -40 -89 -84 -83 -47 6 -56 14 -56 46
0 38 21 53 78 59 26 2 49 6 51 8 9 8 11 3 11 -30z"/>
<path d="M50 1700 l-55 -7 58 -1 c32 -1 57 2 57 8 0 6 -1 9 -2 8 -2 -1 -28 -4
-58 -8z"/>
<path d="M130 1700 c-13 -8 -12 -10 3 -10 9 0 17 5 17 10 0 12 -1 12 -20 0z"/>
<path d="M875 1693 c1864 -7 3175 -7 3175 0 0 4 -872 6 -1937 5 -1066 -2
-1623 -4 -1238 -5z"/>
<path d="M4085 1694 c71 -8 165 -8 165 -1 0 4 -44 6 -97 5 -54 0 -84 -3 -68
-4z"/>
<path d="M4260 1696 c0 -2 11 -6 25 -8 14 -3 25 -1 25 3 0 5 -11 9 -25 9 -14
0 -25 -2 -25 -4z"/>
<path d="M4320 1696 c0 -2 11 -6 25 -8 14 -3 25 -1 25 3 0 5 -11 9 -25 9 -14
0 -25 -2 -25 -4z"/>
<path d="M4390 1694 c36 -8 100 -9 100 -2 0 5 -26 7 -57 7 -32 -1 -51 -3 -43
-5z"/>
<path d="M4500 1696 c0 -2 11 -6 25 -8 14 -3 25 -1 25 3 0 5 -11 9 -25 9 -14
0 -25 -2 -25 -4z"/>
<path d="M4560 1696 c0 -2 11 -6 25 -8 14 -3 25 -1 25 3 0 5 -11 9 -25 9 -14
0 -25 -2 -25 -4z"/>
<path d="M4620 1696 c0 -2 7 -6 15 -10 8 -3 15 -1 15 4 0 6 -7 10 -15 10 -8 0
-15 -2 -15 -4z"/>
<path d="M4660 1696 c0 -2 11 -6 25 -8 14 -3 25 -1 25 3 0 5 -11 9 -25 9 -14
0 -25 -2 -25 -4z"/>
<path d="M4720 1696 c0 -2 11 -6 25 -8 14 -3 25 -1 25 3 0 5 -11 9 -25 9 -14
0 -25 -2 -25 -4z"/>
<path d="M4780 1696 c0 -2 11 -6 25 -8 14 -3 25 -1 25 3 0 5 -11 9 -25 9 -14
0 -25 -2 -25 -4z"/>
<path d="M4845 1692 c7 -8 65 -10 65 -2 0 3 -16 7 -35 7 -19 0 -33 -2 -30 -5z"/>
<path d="M4935 1694 c48 -8 115 -9 115 -2 0 5 -30 7 -67 7 -38 -1 -59 -3 -48
-5z"/>
<path d="M5063 1693 c9 -8 47 -11 47 -4 0 5 -11 9 -25 9 -14 0 -24 -2 -22 -5z"/>
<path d="M5123 1693 c9 -8 47 -11 47 -4 0 5 -11 9 -25 9 -14 0 -24 -2 -22 -5z"/>
<path d="M5187 1693 c-3 -4 24 -8 59 -8 35 0 64 3 64 6 0 9 -118 11 -123 2z"/>
<path d="M5325 1692 c7 -8 65 -10 65 -2 0 3 -16 7 -35 7 -19 0 -33 -2 -30 -5z"/>
<path d="M5407 1693 c-3 -5 6 -8 19 -8 13 0 24 3 24 8 0 4 -9 7 -19 7 -11 0
-22 -3 -24 -7z"/>
<path d="M5463 1693 c9 -8 47 -11 47 -4 0 5 -11 9 -25 9 -14 0 -24 -2 -22 -5z"/>
<path d="M5523 1693 c9 -8 47 -11 47 -4 0 5 -11 9 -25 9 -14 0 -24 -2 -22 -5z"/>
<path d="M5586 1692 c-3 -5 1 -9 9 -9 8 0 15 4 15 9 0 4 -4 8 -9 8 -6 0 -12
-4 -15 -8z"/>
<path d="M5623 1693 c9 -8 47 -11 47 -4 0 5 -11 9 -25 9 -14 0 -24 -2 -22 -5z"/>
<path d="M5685 1690 c-2 -3 118 -5 266 -5 147 -1 266 1 263 4 -6 7 -525 8
-529 1z"/>
<path d="M6230 1688 c0 -4 11 -7 25 -6 28 3 24 11 -5 13 -11 1 -20 -2 -20 -7z"/>
<path d="M6290 1689 c0 -7 66 -7 73 1 3 3 -12 5 -34 6 -21 0 -39 -3 -39 -7z"/>
</g>
</svg>
